<?xml version="1.0" standalone="no"?>
<!DOCTYPE svg PUBLIC "-//W3C//DTD SVG 20010904//EN"
 "http://www.w3.org/TR/2001/REC-SVG-20010904/DTD/svg10.dtd">
<svg version="1.0" xmlns="http://www.w3.org/2000/svg"
 width="512.000000pt" height="512.000000pt" viewBox="0 0 512.000000 512.000000"
 preserveAspectRatio="xMidYMid meet">
<metadata>
Created by potrace 1.14, written by Peter Selinger 2001-2017
</metadata>
<g transform="translate(0.000000,512.000000) scale(0.100000,-0.100000)"
fill="#000000" stroke="none">
<path d="M1407 4853 c-1 -1 -54 -2 -117 -4 -63 -1 -132 -8 -153 -15 -20 -7
-41 -14 -45 -15 -4 -1 -17 -5 -30 -10 -13 -5 -26 -9 -28 -9 -12 0 -141 -90
-171 -119 -48 -47 -131 -176 -139 -216 -1 -5 -7 -30 -14 -55 -7 -25 -14 -63
-15 -85 -2 -22 -4 -44 -5 -50 -1 -5 -2 -14 -1 -20 0 -5 3 -617 5 -1360 2 -742
5 -1350 5 -1350 1 0 3 -16 5 -36 1 -19 15 -61 30 -93 24 -50 96 -126 521 -549
541 -540 525 -525 581 -555 85 -47 88 -47 1020 -45 483 1 921 3 972 4 88 2
183 18 227 37 66 31 115 58 115 64 0 5 6 8 13 8 12 0 103 91 144 143 30 38 77
150 92 217 6 30 9 3671 2 3684 -3 6 -6 19 -7 30 -8 58 -13 75 -46 143 -12 23
-29 51 -40 63 -10 11 -17 20 -14 20 7 0 -60 64 -90 86 -31 22 -119 65 -144 69
-8 2 -15 4 -15 5 0 10 -227 12 -1348 14 -720 0 -1309 0 -1310 -1z m2611 -336
c55 -30 81 -82 86 -167 2 -41 -1 -81 -7 -87 -5 -7 -6 -13 -1 -13 14 0 16
-3428 2 -3473 -18 -60 -78 -129 -137 -158 -52 -26 -61 -27 -230 -29 -502 -4
-1641 -4 -1643 0 0 3 -2 163 -3 355 -1 193 -5 370 -9 395 -11 71 -61 164 -114
211 -49 44 -145 94 -161 85 -5 -4 -11 -1 -13 4 -2 7 -131 12 -388 13 l-385 2
-2 1327 c-3 1492 -8 1381 73 1464 57 58 113 81 204 83 41 1 75 3 76 4 1 1 591
2 1311 2 1225 -1 1310 -2 1341 -18z m-2306 -3186 c48 -1 53 -31 52 -271 -1
-118 -2 -222 -3 -230 -1 -12 -511 484 -511 497 0 3 309 9 380 6 30 -1 67 -2
82 -2z"/>
<path d="M1525 4209 c-77 -8 -96 -13 -152 -41 -52 -26 -126 -95 -151 -142 -44
-82 -46 -95 -48 -331 -3 -255 5 -301 66 -391 34 -48 125 -124 149 -124 9 0 22
-5 27 -10 14 -14 128 -27 221 -24 43 1 78 3 78 4 0 1 11 4 24 6 75 14 209 110
225 162 4 12 11 22 15 22 7 0 22 41 38 104 7 28 11 438 4 451 -3 6 -6 19 -7
30 -2 36 -46 115 -91 165 -64 71 -152 112 -257 119 -44 4 -108 3 -141 0z m167
-336 c11 -14 20 -299 10 -364 -5 -35 -33 -46 -114 -44 -99 3 -96 -2 -95 218 1
102 6 189 10 193 10 11 102 20 144 15 18 -2 38 -10 45 -18z"/>
<path d="M3334 4204 c-76 -16 -128 -44 -183 -97 -43 -42 -95 -134 -106 -192
-9 -43 -9 -401 0 -455 10 -67 52 -146 104 -199 46 -47 132 -99 161 -96 8 0 18
-3 21 -8 9 -13 240 -10 273 3 14 5 26 8 26 5 0 -2 23 8 52 22 106 53 193 174
205 283 6 63 9 390 3 390 -3 0 -6 18 -7 41 0 23 -15 69 -32 104 -48 98 -144
175 -251 202 -40 10 -214 8 -266 -3z m221 -324 c7 -6 14 -19 14 -28 -1 -9 0
-89 1 -177 1 -88 -2 -168 -5 -178 -4 -9 -17 -19 -29 -22 -45 -9 -107 -12 -111
-5 -3 5 -14 6 -24 3 -35 -9 -43 28 -43 212 0 95 3 178 7 185 4 6 16 15 27 19
30 11 146 5 163 -9z"/>
<path d="M2369 4188 c-20 -11 -46 -38 -58 -60 -20 -38 -21 -51 -20 -446 1
-454 0 -448 71 -505 l37 -30 148 0 c128 -1 155 2 188 19 39 19 89 79 80 95 -3
4 -1 10 4 13 11 7 6 63 -9 98 -24 58 -79 93 -150 93 l-48 0 0 313 c-1 298 -2
315 -22 350 -45 79 -143 106 -221 60z"/>
<path d="M1460 2820 c-8 -5 -17 -7 -21 -4 -10 6 -85 -68 -96 -96 -6 -15 -9
-188 -9 -435 1 -408 1 -410 24 -446 25 -41 61 -68 100 -76 32 -6 258 -6 287 1
11 2 23 5 27 5 4 1 23 14 41 31 45 39 63 100 47 158 -11 42 -48 92 -68 92 -6
0 -12 5 -14 11 -2 5 -28 12 -58 15 -29 2 -56 7 -59 10 -3 3 -6 142 -7 308 -1
339 -4 356 -73 401 -41 26 -99 39 -121 25z"/>
<path d="M2420 2815 c-136 -35 -239 -138 -275 -275 -7 -29 -11 -122 -10 -260
2 -177 5 -224 19 -264 35 -98 102 -173 195 -219 65 -32 67 -32 211 -32 143 0
146 0 211 32 97 47 157 114 196 217 22 58 27 434 7 523 -30 135 -141 249 -271
279 -50 11 -237 11 -283 -1z m233 -330 c18 -30 19 -354 1 -381 -11 -19 -23
-22 -86 -23 -116 -2 -113 -8 -113 213 0 220 -4 213 112 211 63 -1 77 -4 86
-20z"/>
<path d="M3291 2808 c-23 -11 -51 -34 -64 -52 -22 -31 -22 -34 -24 -449 -2
-445 -2 -447 47 -498 39 -41 81 -49 236 -46 131 2 143 4 177 27 45 30 70 81
69 136 -1 95 -79 160 -189 157 l-21 0 -1 296 c-1 163 -3 306 -5 318 -21 104
-130 158 -225 111z"/>
</g>
</svg>
